<svg width="97" height="113" viewBox="0 0 97 113" fill="none" xmlns="http://www.w3.org/2000/svg">
<g filter="url(#filter0_d_33_234)">
<path fill-rule="evenodd" clip-rule="evenodd" d="M48.5 11.7222C25.6201 11.7222 11 28.8823 11 50.1626C11 71.4323 42.926 102 48.5 102C54.0843 102 86 71.429 86 50.1626C86 28.8839 71.3919 11.7222 48.5 11.7222Z" fill="#4298C8"/>
<path d="M35.0439 31.2557C35.8268 34.7561 37.6886 37.9483 40.3865 40.4157C43.0843 42.8832 46.4928 44.5113 50.1673 45.0877C50.3025 45.1134 50.4418 45.1109 50.5758 45.0801C50.7098 45.0493 50.8353 44.9911 50.9437 44.9093C51.0521 44.8276 51.1409 44.7243 51.204 44.6065C51.2671 44.4887 51.303 44.3592 51.3093 44.2269C51.6221 39.6472 50.3762 35.0941 47.7599 31.2557H51.7414C51.7414 31.2557 52.6673 33.0663 53.1611 34.2239C53.1845 34.2675 53.2199 34.3041 53.2635 34.3296C53.307 34.3552 53.3571 34.3687 53.4081 34.3687C53.4591 34.3687 53.5091 34.3552 53.5526 34.3296C53.5962 34.3041 53.6316 34.2675 53.655 34.2239C53.9796 33.1896 54.4249 32.1938 54.9821 31.2557H57.7908C55.3113 35.1979 54.3296 39.8448 55.013 44.405C55.0252 44.4901 55.0575 44.5715 55.1074 44.6428C55.1573 44.7142 55.2235 44.7736 55.3009 44.8165C55.3783 44.8595 55.4649 44.8849 55.5541 44.8907C55.6433 44.8965 55.7327 44.8827 55.8155 44.8502L66.4945 39.5074V46.1859C63.5341 46.147 60.5989 46.7136 57.8834 47.8481C57.7684 47.8933 57.6664 47.9646 57.5862 48.0558C57.506 48.147 57.4498 48.2556 57.4226 48.3721C57.3953 48.4887 57.3977 48.6099 57.4296 48.7253C57.4614 48.8408 57.5218 48.9472 57.6056 49.0354C59.2105 50.9054 63.5315 55.7733 66.5562 56.7825V60.5819L63.4698 58.5932C63.4319 58.5636 63.3859 58.5456 63.3374 58.5412C63.2889 58.5368 63.2401 58.5463 63.1972 58.5685C63.1543 58.5907 63.1192 58.6247 63.0963 58.666C63.0734 58.7074 63.0638 58.7543 63.0686 58.8009C62.9426 60.7725 63.484 62.7303 64.6118 64.3812H59.7969C59.7969 64.3812 61.6797 58.0886 55.013 50.2821C54.9174 50.1754 54.799 50.0897 54.6658 50.031C54.5326 49.9723 54.3879 49.9419 54.2414 49.9419C54.0949 49.9419 53.9502 49.9723 53.817 50.031C53.6838 50.0897 53.5654 50.1754 53.4698 50.2821C51.6206 52.1754 50.1867 54.4074 49.2534 56.8449C48.3202 59.2825 47.9067 61.8758 48.0377 64.4703H43.9636C44.1059 62.677 44.5327 60.9153 45.229 59.2462C45.229 59.0681 45.229 58.8603 44.8895 58.9494C42.0979 60.2302 39.6643 62.1331 37.7908 64.5H31.834V58.8603C31.834 58.8603 44.7969 59.9585 50.3525 48.8573C50.3936 48.7778 50.4174 48.6911 50.4225 48.6025C50.4275 48.5139 50.4138 48.4252 50.382 48.3418C50.3502 48.2585 50.3011 48.1823 50.2377 48.1178C50.1742 48.0533 50.0978 48.002 50.013 47.9669C47.4513 46.9873 37.6673 43.9004 31.8957 48.798V43.4551H36.7105C36.7771 43.452 36.8412 43.4301 36.8949 43.3922C36.9486 43.3543 36.9895 43.302 37.0126 43.2419C37.0356 43.1818 37.0397 43.1165 37.0244 43.0541C37.0091 42.9917 36.9751 42.9351 36.9266 42.8912C35.1321 41.6324 33.4493 40.2325 31.8957 38.706V31.1666H34.9821L35.0439 31.2557Z" fill="white"/>
</g>
<defs>
<filter id="filter0_d_33_234" x="0" y="0.722168" width="97" height="112.278" filterUnits="userSpaceOnUse" color-interpolation-filters="sRGB">
<feFlood flood-opacity="0" result="BackgroundImageFix"/>
<feColorMatrix in="SourceAlpha" type="matrix" values="0 0 0 0 0 0 0 0 0 0 0 0 0 0 0 0 0 0 127 0" result="hardAlpha"/>
<feOffset/>
<feGaussianBlur stdDeviation="5.5"/>
<feComposite in2="hardAlpha" operator="out"/>
<feColorMatrix type="matrix" values="0 0 0 0 0.258824 0 0 0 0 0.596078 0 0 0 0 0.784314 0 0 0 0.37 0"/>
<feBlend mode="normal" in2="BackgroundImageFix" result="effect1_dropShadow_33_234"/>
<feBlend mode="normal" in="SourceGraphic" in2="effect1_dropShadow_33_234" result="shape"/>
</filter>
</defs>
</svg>
