<svg width="932" height="468" viewBox="0 0 932 468" fill="none" xmlns="http://www.w3.org/2000/svg">
<path opacity="0.34" d="M68.6017 174.722C112.27 241.904 174.938 294.401 248.431 325.363C321.924 356.325 402.827 364.314 480.586 348.287C483.482 347.794 486.235 346.675 488.655 345.008C491.075 343.341 493.105 341.165 494.608 338.628C496.11 336.091 497.049 333.254 497.36 330.31C497.67 327.366 497.346 324.385 496.408 321.571C465.889 223.458 404.56 137.809 321.691 77.5694L400.936 47.1504C400.936 47.1504 433.892 77.9213 453.009 98.3443C453.824 99.0772 454.822 99.5712 455.893 99.7721C456.965 99.973 458.069 99.8734 459.085 99.4836C460.1 99.0939 460.987 98.4292 461.649 97.5627C462.311 96.6962 462.722 95.6614 462.837 94.5714C461.001 70.4713 461.872 46.2575 465.437 22.3908L521.338 0.932441C503.618 102.274 521.364 206.903 571.553 296.997C572.479 298.683 573.774 300.137 575.34 301.247C576.905 302.357 578.699 303.093 580.585 303.399C582.471 303.706 584.398 303.574 586.22 303.015C588.042 302.455 589.71 301.483 591.097 300.172L760.776 106.909L814.36 246.501C755.127 268.306 701.253 302.574 656.308 347.034C654.382 348.858 652.925 351.126 652.06 353.646C651.195 356.165 650.948 358.862 651.341 361.507C651.733 364.152 652.753 366.666 654.314 368.837C655.875 371.007 657.93 372.769 660.306 373.973C707.253 400.797 832.311 469.531 900.609 467.516L931.093 546.929L853.707 528.942C852.717 528.614 851.655 528.588 850.655 528.867C849.654 529.146 848.76 529.717 848.084 530.509C847.409 531.301 846.982 532.278 846.859 533.318C846.735 534.357 846.919 535.412 847.388 536.35C860.7 578.522 887.184 615.306 922.876 641.197L827.046 677.983C827.046 677.983 814.029 532.071 618.707 419.838C615.948 418.338 612.904 417.453 609.783 417.243C606.661 417.034 603.536 417.504 600.621 418.623C597.705 419.743 595.068 421.484 592.889 423.728C590.709 425.972 589.039 428.667 587.992 431.628C566.379 485.329 555.746 542.936 556.729 601.015C557.712 659.095 570.29 716.458 593.713 769.686L512.626 800.812C501.071 762.243 495.429 722.16 495.898 681.952C494.469 678.23 492.802 673.887 486.759 678.342C441.474 726.443 408.304 784.809 390.005 848.594L271.446 894.105L226.197 776.227C226.197 776.227 493.013 700.143 514.517 425.665C514.697 423.69 514.475 421.695 513.865 419.804C513.255 417.913 512.269 416.164 510.968 414.665C509.667 413.166 508.078 411.948 506.298 411.085C504.518 410.222 502.584 409.732 500.615 409.646C441.77 408.745 219.578 397.639 144 544.103L103.824 453.762L199.654 416.976C200.954 416.403 202.055 415.456 202.819 414.253C203.584 413.05 203.979 411.644 203.955 410.212C203.931 408.779 203.489 407.382 202.684 406.196C201.88 405.009 200.748 404.085 199.43 403.538C153.614 390.938 108.89 374.535 65.7199 354.497L0.929588 195L0.929584 63.5219L68.6017 174.722Z" fill="#73BEE7"/>
</svg>
