<svg width="969" height="766" viewBox="0 0 969 766" fill="none" xmlns="http://www.w3.org/2000/svg">
<path opacity="0.42" d="M-55.3649 52.4282C-9.8563 118.378 54.2398 169.123 128.56 198.041C202.881 226.959 283.975 232.709 361.26 214.538C364.142 213.965 366.862 212.771 369.235 211.037C371.608 209.304 373.578 207.072 375.01 204.495C376.441 201.918 377.301 199.055 377.531 196.104C377.76 193.153 377.353 190.182 376.338 187.394C343.118 90.1631 279.445 6.2424 194.942 -51.6836L273.315 -84.2817C273.315 -84.2817 307.11 -54.4337 326.784 -34.5469C327.619 -33.8368 328.63 -33.3707 329.707 -33.1995C330.784 -33.0282 331.885 -33.1583 332.889 -33.576C333.893 -33.9936 334.761 -34.6827 335.399 -35.5671C336.037 -36.4515 336.419 -37.4974 336.504 -38.5901C334.002 -62.6301 334.204 -86.8589 337.107 -110.815L392.394 -133.811C377.482 -32.0177 398.114 72.0807 450.774 160.752C451.747 162.413 453.082 163.83 454.677 164.896C456.273 165.962 458.086 166.649 459.98 166.903C461.874 167.157 463.797 166.972 465.602 166.363C467.408 165.753 469.049 164.735 470.399 163.386L594.587 -130.863L737.696 -147.607C679.088 -124.173 580.579 162.742 536.881 208.428C535.006 210.304 533.612 212.611 532.817 215.154C532.022 217.697 531.85 220.399 532.315 223.032C532.781 225.665 533.87 228.15 535.49 230.277C537.11 232.403 539.214 234.108 541.621 235.245C589.292 260.761 900.782 359.017 968.999 355.114L855.414 428.351L739.233 384.808C738.234 384.508 737.172 384.512 736.18 384.818C735.187 385.125 734.309 385.72 733.656 386.531C733.002 387.341 732.603 388.33 732.508 389.372C732.413 390.414 732.626 391.464 733.121 392.388C747.594 434.176 830.662 522.758 867.056 547.652L715.056 547.652C715.056 547.652 699.657 389.034 501.307 282.243C498.507 280.819 495.44 280.019 492.314 279.896C489.188 279.773 486.077 280.33 483.194 281.529C480.31 282.728 477.722 284.542 475.606 286.845C473.489 289.149 471.894 291.889 470.93 294.878C450.809 349.156 441.773 407.035 444.361 465.065C446.949 523.094 461.108 580.088 485.994 632.648L405.799 666.004C393.181 627.77 386.434 587.857 385.79 547.652C384.259 543.971 382.473 539.675 376.555 544.296C332.617 593.63 301.074 652.891 284.546 717.158L167.29 765.928L118.799 649.346C118.799 649.346 383.41 565.916 397.318 290.948C397.443 288.968 397.166 286.981 396.504 285.107C395.842 283.234 394.808 281.513 393.466 280.05C392.124 278.588 390.502 277.414 388.698 276.601C386.895 275.787 384.949 275.352 382.978 275.32C324.13 276.046 67.5564 348.688 -3.94375 497.185L-12.4414 330.389L82.3351 290.968C83.6182 290.358 84.6923 289.381 85.4235 288.157C86.1546 286.934 86.5105 285.518 86.4469 284.087C86.3834 282.655 85.9031 281.271 85.0659 280.107C84.2287 278.943 83.0718 278.051 81.739 277.541C35.5921 266.212 -9.56793 251.052 -53.2756 232.214L-118.1 76.3628L-57.3456 51.0929L-55.3649 52.4282Z" fill="#EBEBEB"/>
</svg>
