<svg width="957" height="549" viewBox="0 0 957 549" fill="none" xmlns="http://www.w3.org/2000/svg">
<path opacity="0.42" d="M-67.4215 51.7429C-21.9129 117.693 42.1832 168.437 116.504 197.356C190.824 226.274 271.918 232.023 349.204 213.853C352.085 213.28 354.806 212.085 357.179 210.352C359.552 208.619 361.521 206.387 362.953 203.81C364.385 201.232 365.245 198.37 365.474 195.419C365.703 192.467 365.296 189.496 364.282 186.709C331.062 89.4779 267.388 5.55715 182.886 -52.3688L261.259 -84.9669C261.259 -84.9669 295.053 -55.119 314.727 -35.2322C315.562 -34.5221 316.573 -34.0559 317.65 -33.8847C318.727 -33.7134 319.828 -33.8436 320.832 -34.2612C321.836 -34.6788 322.705 -35.3679 323.342 -36.2523C323.98 -37.1368 324.363 -38.1826 324.448 -39.2753C321.945 -63.3154 322.147 -87.5442 325.051 -111.5L380.337 -134.496C365.425 -32.703 386.057 71.3955 438.718 160.067C439.69 161.728 441.025 163.145 442.62 164.211C444.216 165.277 446.03 165.963 447.923 166.217C449.817 166.472 451.74 166.287 453.546 165.677C455.351 165.068 456.992 164.05 458.342 162.701L582.53 -131.548L725.64 -148.292C667.032 -124.858 568.522 162.057 524.824 207.742C522.949 209.618 521.555 211.926 520.76 214.469C519.965 217.011 519.793 219.714 520.259 222.347C520.724 224.98 521.813 227.465 523.433 229.591C525.054 231.718 527.157 233.422 529.565 234.56C577.235 260.076 888.725 358.331 956.942 354.429L843.358 427.666L727.176 384.123C726.178 383.823 725.115 383.826 724.123 384.133C723.131 384.439 722.252 385.035 721.599 385.846C720.946 386.656 720.546 387.644 720.451 388.687C720.356 389.729 720.57 390.779 721.065 391.703C735.537 433.491 818.606 522.073 854.999 546.967L702.999 546.967C702.999 546.967 687.6 388.349 489.25 281.558C486.45 280.134 483.383 279.334 480.257 279.211C477.131 279.087 474.02 279.644 471.137 280.844C468.253 282.043 465.665 283.856 463.549 286.16C461.432 288.464 459.837 291.203 458.873 294.192C438.752 348.471 429.716 406.349 432.305 464.379C434.893 522.409 449.052 579.402 473.938 631.963L393.742 665.319C381.125 627.084 374.377 587.172 373.734 546.967C372.202 543.285 370.416 538.99 364.499 543.611C320.561 592.945 289.017 652.206 272.489 716.472L155.233 765.243L106.743 648.661C106.743 648.661 371.353 565.231 385.261 290.263C385.386 288.283 385.11 286.296 384.447 284.422C383.785 282.549 382.751 280.828 381.409 279.365C380.067 277.903 378.445 276.729 376.642 275.915C374.839 275.102 372.892 274.666 370.922 274.635C312.074 275.36 55.4998 348.003 -16.0004 496.5L-24.4981 329.703L70.2785 290.282C71.5616 289.673 72.6357 288.696 73.3668 287.472C74.098 286.249 74.4539 284.833 74.3903 283.401C74.3267 281.97 73.8464 280.586 73.0093 279.422C72.1721 278.258 71.0152 277.365 69.6824 276.855C23.5355 265.527 -21.6246 250.366 -65.3322 231.529L-130.156 75.6775L-69.4022 50.4077L-67.4215 51.7429Z" fill="#73BEE7"/>
</svg>
