<svg width="10" height="14" viewBox="0 0 10 14" fill="none" xmlns="http://www.w3.org/2000/svg">
<path d="M6.9928 0.494865L6.9928 0.49486L6.99374 0.493922C7.45232 0.0353431 8.14729 0.0353431 8.60587 0.493922C9.06445 0.9525 9.06445 1.64748 8.60587 2.10605L3.81194 6.89999L8.60587 11.6939C8.71473 11.8028 8.80233 11.9176 8.86188 12.0516C8.92171 12.1862 8.9498 12.3325 8.9498 12.5C8.9498 12.8341 8.83779 13.1241 8.63087 13.3311C8.42395 13.538 8.13389 13.65 7.7998 13.65C7.6323 13.65 7.48601 13.6219 7.35138 13.5621C7.21741 13.5025 7.10259 13.4149 6.99374 13.3061L1.30341 7.61572C1.10364 7.47404 1.02357 7.21796 1.03754 6.96667C1.05206 6.7052 1.16735 6.42053 1.3933 6.19436C1.39345 6.19421 1.39359 6.19407 1.39374 6.19392L6.9928 0.494865Z" fill="#505457" stroke="#505457" stroke-width="0.3"/>
</svg>
