<svg width="998" height="812" viewBox="0 0 998 812" fill="none" xmlns="http://www.w3.org/2000/svg">
<path opacity="0.42" d="M-87.0177 123.7C-34.1694 184.152 36.5272 227.018 115.848 246.706C195.169 266.394 279.43 261.989 357.637 234.066C360.562 233.129 363.266 231.59 365.563 229.553C367.86 227.517 369.696 225.031 370.946 222.266C372.196 219.501 372.831 216.521 372.806 213.532C372.781 210.542 372.097 207.613 370.802 204.944C327.871 111.57 254.669 35.369 162.261 -12.1417L240.311 -54.6747C240.311 -54.6747 277.86 -28.9707 299.942 -11.4884C300.867 -10.8808 301.953 -10.54 303.081 -10.5033C304.208 -10.4666 305.333 -10.7352 306.333 -11.2801C307.333 -11.8251 308.169 -12.6252 308.75 -13.5925C309.33 -14.5598 309.632 -15.6569 309.623 -16.7638C304.907 -40.5665 302.967 -64.8979 303.841 -89.2945L358.9 -119.298C352.526 -15.3107 383.065 86.5315 445.315 168.88C446.467 170.424 447.971 171.678 449.713 172.548C451.456 173.417 453.39 173.878 455.368 173.895C457.346 173.913 459.316 173.486 461.127 172.648C462.937 171.81 464.542 170.583 465.816 169.06L567.981 -141.704L714.296 -176.453C655.845 -145.592 579.55 154.594 538.471 205.906C536.701 208.024 535.466 210.513 534.87 213.164C534.275 215.814 534.337 218.547 535.051 221.13C535.765 223.713 537.111 226.069 538.972 227.999C540.834 229.929 543.158 231.376 545.745 232.215C597.241 251.832 927.653 311.328 997.759 298.856L886.947 386.574L763.096 357.466C762.038 357.29 760.941 357.427 759.944 357.859C758.946 358.291 758.092 358.999 757.489 359.894C756.886 360.789 756.561 361.83 756.555 362.888C756.55 363.946 756.863 364.972 757.457 365.837C776.109 405.942 869.755 484.387 909.549 504.795L752.568 523.862C752.568 523.862 722.598 366.67 508.277 284.419C505.259 283.342 502.02 282.924 498.781 283.193C495.542 283.461 492.379 284.41 489.507 285.975C486.635 287.54 484.123 289.684 482.142 292.26C480.16 294.837 478.756 297.785 478.025 300.905C462.058 357.88 457.859 417.076 465.678 474.967C473.496 532.857 493.173 588.255 523.536 637.862L443.67 681.384C427.248 644.61 416.74 605.417 412.511 565.164C410.603 561.663 408.377 557.578 402.676 562.956C361.672 617.959 334.35 681.365 322.979 747.91L206.206 811.545L145.788 700.674C145.788 700.674 411.672 583.785 401.652 306.196C401.606 304.195 401.144 302.236 400.294 300.439C399.443 298.643 398.223 297.046 396.708 295.747C395.192 294.448 393.412 293.474 391.478 292.884C389.544 292.295 387.495 292.102 385.457 292.317C324.745 300.427 66.2037 405.485 5.52862 563.424L-18.0387 397.162L76.3482 345.727C77.6193 344.954 78.642 343.839 79.2886 342.52C79.9352 341.201 80.1772 339.736 79.9846 338.308C79.792 336.88 79.1733 335.552 78.2054 334.489C77.2376 333.426 75.9636 332.676 74.5419 332.332C25.8781 326.756 -22.1064 317.212 -68.9169 303.797L-149.686 155.58L-89.1818 122.609L-87.0177 123.7Z" fill="#73BEE7"/>
</svg>
