<svg width="861" height="796" viewBox="0 0 861 796" fill="none" xmlns="http://www.w3.org/2000/svg">
<path opacity="0.34" d="M194.349 75.332C237.749 142.688 300.208 195.434 373.577 226.688C446.946 257.942 527.817 266.253 605.639 250.536C608.537 250.054 611.294 248.946 613.721 247.289C616.147 245.631 618.187 243.463 619.699 240.932C621.212 238.401 622.162 235.567 622.484 232.625C622.807 229.682 622.494 226.7 621.568 223.882C591.439 125.649 530.452 39.7568 447.823 -20.8124L527.188 -50.9159C527.188 -50.9159 560.021 -20.0142 579.056 0.4848C579.868 1.22094 580.864 1.7188 581.935 1.92402C583.006 2.12924 584.111 2.03392 585.128 1.64825C586.145 1.26258 587.034 0.601368 587.7 -0.262461C588.365 -1.12629 588.781 -2.15952 588.9 -3.24901C587.159 -27.3562 588.127 -51.5664 591.787 -75.4187L647.772 -96.6545C629.649 4.61585 646.979 109.315 696.809 199.607C697.729 201.298 699.018 202.757 700.579 203.872C702.14 204.988 703.931 205.732 705.816 206.046C707.7 206.359 709.628 206.236 711.452 205.683C713.277 205.131 714.949 204.166 716.341 202.86L886.787 10.2737L939.816 150.078C880.496 171.647 826.486 205.701 781.365 249.981C779.432 251.797 777.965 254.06 777.09 256.576C776.216 259.092 775.958 261.788 776.34 264.435C776.722 267.081 777.732 269.599 779.284 271.776C780.836 273.952 782.885 275.723 785.255 276.936C832.095 303.946 956.879 373.178 1025.18 371.434L1055.35 450.968L978.039 432.673C977.05 432.341 975.988 432.311 974.986 432.586C973.985 432.861 973.088 433.429 972.41 434.218C971.731 435.008 971.301 435.983 971.173 437.022C971.045 438.06 971.225 439.116 971.69 440.056C984.834 482.28 1011.17 519.17 1046.76 545.202L950.785 581.606C950.785 581.606 938.349 435.645 743.475 322.635C740.721 321.124 737.681 320.227 734.56 320.005C731.44 319.783 728.313 320.241 725.393 321.349C722.473 322.456 719.829 324.187 717.641 326.422C715.453 328.658 713.772 331.346 712.713 334.303C690.886 387.918 680.025 445.482 680.776 503.565C681.528 561.647 693.878 619.06 717.089 672.381L635.879 703.184C624.477 664.57 618.995 624.464 619.623 584.259C618.209 580.531 616.559 576.181 610.499 580.612C565.023 628.532 531.621 686.766 513.069 750.478L394.33 795.516L349.55 677.459C349.55 677.459 616.666 602.438 639.262 328.047C639.45 326.073 639.236 324.078 638.634 322.184C638.031 320.29 637.052 318.538 635.757 317.034C634.462 315.529 632.878 314.305 631.101 313.435C629.324 312.565 627.393 312.068 625.424 311.974C566.583 310.838 344.437 298.849 268.277 445.01L228.461 354.511L324.437 318.106C325.738 317.538 326.843 316.595 327.612 315.395C328.382 314.195 328.782 312.792 328.764 311.359C328.746 309.926 328.309 308.528 327.509 307.338C326.709 306.148 325.581 305.219 324.265 304.667C278.5 291.885 233.842 275.304 190.752 255.094L0.0673831 -5.59174L127.119 -36.136L194.349 75.332Z" fill="#73BEE7"/>
</svg>
