<svg width="876" height="728" viewBox="0 0 876 728" fill="none" xmlns="http://www.w3.org/2000/svg">
<path opacity="0.42" d="M69.5188 1.99107C89.5485 85.5509 137.18 161.753 206.199 220.654C275.217 279.555 362.418 318.421 456.423 332.179C459.88 332.795 463.444 332.733 466.872 331.998C470.301 331.264 473.511 329.873 476.285 327.922C479.059 325.971 481.331 323.505 482.945 320.694C484.56 317.882 485.478 314.791 485.638 311.631C493.64 202.308 461.766 93.6186 394.834 1.99107H496.692C496.692 1.99107 520.38 45.2132 533.014 72.8469C533.612 73.8879 534.517 74.7609 535.632 75.3704C536.746 75.98 538.026 76.3027 539.331 76.3027C540.636 76.3027 541.916 75.98 543.03 75.3704C544.144 74.7609 545.05 73.8879 545.648 72.8469C553.954 48.1557 565.344 24.3862 579.6 1.99107H651.454C588.021 96.0964 562.907 207.026 580.39 315.883C580.702 317.916 581.528 319.858 582.804 321.56C584.081 323.263 585.774 324.681 587.755 325.707C589.736 326.733 591.952 327.338 594.234 327.477C596.515 327.617 598.802 327.286 600.92 326.511L874.121 198.97V358.396C798.385 357.468 723.294 370.993 653.823 398.075C650.881 399.155 648.273 400.855 646.22 403.033C644.168 405.211 642.732 407.801 642.034 410.584C641.336 413.366 641.398 416.259 642.213 419.016C643.028 421.772 644.573 424.312 646.716 426.418C687.776 471.057 798.32 587.261 875.7 611.352V702.047L796.74 654.574C795.772 653.869 794.594 653.438 793.353 653.333C792.112 653.228 790.864 653.456 789.767 653.986C788.67 654.516 787.772 655.326 787.186 656.313C786.6 657.3 786.353 658.421 786.476 659.534C783.253 706.598 797.104 753.333 825.956 792.743H702.778C702.778 792.743 750.944 642.528 580.39 456.177C577.944 453.63 574.914 451.586 571.507 450.184C568.101 448.783 564.397 448.058 560.65 448.058C556.903 448.058 553.199 448.783 549.793 450.184C546.386 451.586 543.356 453.63 540.91 456.177C493.602 501.373 456.918 554.653 433.042 612.841C409.167 671.029 398.59 732.934 401.94 794.868H297.713C301.354 752.061 312.271 710.006 330.087 670.162C330.087 665.911 330.087 660.951 321.401 663.077C249.983 693.653 187.724 739.077 139.793 795.577H-12.5996V660.951C-12.5996 660.951 319.032 687.167 461.16 422.166C462.211 420.269 462.821 418.199 462.95 416.084C463.08 413.968 462.728 411.851 461.915 409.861C461.102 407.872 459.845 406.052 458.222 404.513C456.599 402.974 454.644 401.748 452.475 400.91C386.938 377.527 136.635 303.837 -11.0204 420.749V293.209H112.157C113.86 293.134 115.5 292.612 116.874 291.707C118.248 290.802 119.295 289.554 119.884 288.118C120.473 286.683 120.579 285.124 120.188 283.635C119.797 282.147 118.926 280.794 117.684 279.746C71.7752 249.698 28.7256 216.281 -11.0204 179.839V-0.134521H67.9396L69.5188 1.99107Z" fill="#67B2DB"/>
</svg>
