<svg width="754" height="389" viewBox="0 0 754 389" fill="none" xmlns="http://www.w3.org/2000/svg">
<path opacity="0.12" d="M25.4407 438.011C101.018 449.688 178.364 442.315 247.387 416.852C316.41 391.389 373.905 349.02 412.369 295.272C413.875 293.327 414.846 291.122 415.216 288.807C415.585 286.492 415.344 284.123 414.509 281.86C413.674 279.598 412.265 277.497 410.379 275.699C408.492 273.902 406.172 272.452 403.578 271.447C314.512 235.175 214.536 223.558 118.762 238.352L147.982 175.838C147.982 175.838 190.898 173.698 217.616 173.872C218.657 173.803 219.646 173.498 220.475 172.989C221.305 172.48 221.941 171.787 222.316 170.986C222.69 170.185 222.788 169.307 222.598 168.448C222.408 167.59 221.938 166.783 221.24 166.118C202.988 153.937 186.391 140.128 171.765 124.954L192.378 80.8543C252.825 146.781 338.325 194.016 434.312 214.514C436.1 214.905 437.96 214.956 439.749 214.661C441.538 214.366 443.21 213.733 444.635 212.812C446.06 211.89 447.202 210.704 447.973 209.343C448.744 207.983 449.124 206.485 449.083 204.963L420.869 0.700982L554.102 46.4346C531.6 92.6506 521.362 142.617 524.066 193.023C524.124 195.138 524.797 197.227 526.028 199.111C527.259 200.996 529.012 202.62 531.137 203.847C533.263 205.073 535.697 205.865 538.235 206.156C540.773 206.446 543.338 206.226 545.713 205.515C594.797 193.121 723.619 158.61 765.95 118.03L841.745 144.047L779.42 178.889C778.554 179.281 777.855 179.881 777.412 180.613C776.968 181.344 776.8 182.175 776.928 183.001C777.057 183.826 777.476 184.609 778.133 185.252C778.79 185.895 779.655 186.368 780.621 186.612C819.028 202.091 862.058 206.997 903.269 200.595L867.934 276.194C867.934 276.194 756.216 203.541 551.556 254.759C548.726 255.53 546.148 256.803 544 258.492C541.852 260.18 540.183 262.245 539.108 264.545C538.033 266.845 537.577 269.326 537.771 271.819C537.964 274.312 538.804 276.758 540.231 278.99C564.43 320.989 598.433 358.788 640.212 390.134C681.991 421.479 730.691 445.729 783.41 461.439L753.511 525.408C718.781 510.894 686.768 492.129 658.581 469.765C655.028 468.545 650.883 467.123 650.168 473.063C655.233 525.667 675.334 576.908 708.802 622.533L665.086 716.062L552.578 677.443C552.578 677.443 669.621 481.428 488.931 318.179C487.646 316.989 486.092 316.022 484.361 315.335C482.63 314.649 480.759 314.257 478.863 314.186C476.968 314.114 475.086 314.363 473.335 314.918C471.583 315.472 469.997 316.321 468.675 317.411C430.334 350.926 296.947 483.408 352.294 607.568L245.708 570.981L281.044 495.382C281.47 494.316 281.504 493.159 281.141 492.056C280.779 490.954 280.036 489.953 279.006 489.18C277.976 488.406 276.703 487.894 275.347 487.707C273.99 487.52 272.61 487.667 271.378 488.128C233.097 507.685 192.821 524.52 150.965 538.46L0.560428 486.831L23.2113 438.37L25.4407 438.011Z" fill="#B5E1FA"/>
</svg>
