<svg width="860" height="534" viewBox="0 0 860 534" fill="none" xmlns="http://www.w3.org/2000/svg">
<path opacity="0.34" d="M194.602 71.619C238.27 138.802 300.938 191.299 374.431 222.261C447.924 253.223 528.827 261.212 606.586 245.185C609.482 244.691 612.235 243.573 614.655 241.906C617.075 240.239 619.105 238.062 620.608 235.525C622.11 232.989 623.049 230.151 623.36 227.207C623.67 224.263 623.346 221.282 622.408 218.468C591.889 120.356 530.56 34.7069 447.691 -25.533L526.936 -55.952C526.936 -55.952 559.892 -25.1812 579.009 -4.75811C579.824 -4.02521 580.822 -3.53132 581.893 -3.33036C582.965 -3.1294 584.069 -3.22912 585.085 -3.61883C586.1 -4.00854 586.987 -4.67329 587.649 -5.53976C588.311 -6.40623 588.722 -7.4411 588.837 -8.53106C587 -32.6311 587.872 -56.845 591.437 -80.7116L647.338 -102.17C629.618 -0.828378 647.364 103.801 697.553 193.894C698.479 195.581 699.774 197.035 701.339 198.144C702.905 199.254 704.699 199.99 706.585 200.297C708.471 200.603 710.398 200.472 712.22 199.912C714.042 199.353 715.71 198.38 717.097 197.069L886.776 3.80641L940.36 143.399C881.127 165.204 827.253 199.472 782.308 243.932C780.382 245.755 778.925 248.023 778.06 250.543C777.195 253.063 776.948 255.76 777.341 258.405C777.733 261.049 778.753 263.564 780.314 265.734C781.875 267.904 783.93 269.667 786.306 270.871C833.253 297.694 958.311 366.429 1026.61 364.414L1057.09 443.826L979.707 425.839C978.717 425.512 977.655 425.486 976.655 425.765C975.654 426.044 974.76 426.615 974.084 427.407C973.409 428.199 972.982 429.176 972.859 430.215C972.735 431.255 972.919 432.31 973.388 433.248C986.7 475.419 1013.18 512.204 1048.88 538.094L953.046 574.88C953.046 574.88 940.029 428.969 744.707 316.735C741.948 315.235 738.904 314.35 735.782 314.141C732.661 313.931 729.536 314.402 726.621 315.521C723.705 316.64 721.068 318.381 718.889 320.626C716.709 322.87 715.039 325.565 713.992 328.526C692.378 382.227 681.746 439.834 682.729 497.913C683.712 555.992 696.29 613.355 719.713 666.583L638.626 697.71C627.071 659.141 621.429 619.057 621.898 578.85C620.469 575.127 618.802 570.784 612.759 575.24C567.474 623.34 534.304 681.707 516.005 745.492L397.446 791.002L352.197 673.124C352.197 673.124 619.013 597.041 640.517 322.562C640.697 320.587 640.475 318.593 639.865 316.702C639.255 314.81 638.269 313.062 636.968 311.563C635.667 310.063 634.078 308.845 632.298 307.982C630.518 307.119 628.584 306.63 626.615 306.544C567.77 305.642 345.578 294.537 270 441L229.824 350.66L325.654 313.874C326.954 313.3 328.055 312.353 328.819 311.15C329.584 309.947 329.979 308.542 329.955 307.109C329.931 305.677 329.489 304.28 328.684 303.093C327.88 301.906 326.748 300.982 325.43 300.436C279.614 287.836 234.89 271.433 191.72 251.394L0 -8.53113L126.93 -39.5806L194.602 71.619Z" fill="#73BEE7"/>
</svg>
