<svg width="56" height="26" viewBox="0 0 56 26" fill="none" xmlns="http://www.w3.org/2000/svg">
<path d="M20.5447 21.3781C20.5447 23.9308 18.3803 26 15.7106 26C13.0409 26 10.877 23.9308 10.877 21.3781C10.877 18.8254 13.0409 16.7559 15.7106 16.7559C18.3803 16.7559 20.5447 18.8254 20.5447 21.3781Z" fill="white"/>
<path d="M47.131 21.3781C47.131 23.9308 44.9666 26 42.297 26C39.6273 26 37.4629 23.9308 37.4629 21.3781C37.4629 18.8254 39.6273 16.7559 42.297 16.7559C44.9666 16.7559 47.131 18.8254 47.131 21.3781Z" fill="white"/>
<path d="M1.20862 6.93316H16.9193C17.6444 6.93316 18.1279 6.47082 18.1279 5.77749C18.1279 5.08417 17.6444 4.62183 16.9193 4.62183L1.20862 4.62221C0.483532 4.62221 0 5.08456 0 5.77788C0.000404704 6.4712 0.483532 6.93315 1.20862 6.93315V6.93316Z" fill="white"/>
<path d="M1.20862 11.5556H14.5016C15.2267 11.5556 15.7102 11.0933 15.7102 10.3999C15.7102 9.70661 15.2267 9.24426 14.5016 9.24426L1.20862 9.24465C0.483532 9.24465 0 9.707 0 10.4003C0.000404704 11.0933 0.483532 11.5556 1.20862 11.5556V11.5556Z" fill="white"/>
<path d="M13.2936 15.0222C13.2936 14.3289 12.8101 13.8666 12.085 13.8666H1.20862C0.483532 13.8666 0 14.3289 0 15.0222C0 15.7156 0.483532 16.1779 1.20862 16.1779H12.085C12.8101 16.1779 13.2936 15.5999 13.2936 15.0222Z" fill="white"/>
<path d="M52.5697 9.24486L48.0981 2.77399C47.8566 2.42733 47.494 2.31165 47.1315 2.31165H41.0892L40.8477 3.12065L42.1769 9.36055L52.5695 9.36016L52.5697 9.24486Z" fill="white"/>
<path d="M55.3488 13.1731L54.1402 11.4398H41.0885C40.4844 11.4398 40.0009 10.9775 39.8799 10.5155L39.1548 7.27991L36.2549 15.1378V18.0268C37.5841 16.1778 39.7594 14.9068 42.2972 14.9068C46.2852 14.9068 49.5481 18.0268 49.5481 21.8401C49.5481 22.1867 49.5481 22.6491 49.4271 22.9957L50.7567 22.9953C51.2402 22.9953 51.7234 22.7644 51.8443 22.302L55.4698 14.2131C55.7114 13.8665 55.5904 13.5198 55.3488 13.1732V13.1731Z" fill="white"/>
<path d="M5.43849 18.4889L4.83398 21.7245C4.83398 22.0712 4.83398 22.4178 5.07554 22.6488C5.3171 22.8798 5.67965 23.1112 6.04219 23.1112H8.58001C8.45943 22.6488 8.45943 22.3022 8.45943 21.9555C8.45943 20.6845 8.82197 19.5289 9.42608 18.4889H5.43849Z" fill="white"/>
<path d="M37.7051 0H9.66795C9.06385 0 8.58032 0.462347 8.45933 0.924297L8.21777 2.31094H16.7979C18.369 2.31094 19.8192 3.23524 20.4233 4.62188C21.1484 6.70185 19.8192 8.55084 17.8855 9.12847C18.0065 9.47513 18.1271 9.93748 18.1271 10.3994C18.1271 12.0171 16.9184 13.2884 15.4683 13.7504C15.5893 14.097 15.7098 14.5594 15.7098 15.0213C19.6978 15.0213 22.9607 18.1413 22.9607 21.9545C22.9607 22.3012 22.9607 22.7635 22.8397 23.1102L33.8373 23.111V15.0221C33.8373 14.9064 33.8373 14.7911 33.9583 14.6754L38.3088 3.00484L37.7051 0Z" fill="white"/>
</svg>
